<svg width="110" height="123" viewBox="0 0 110 123" fill="none" xmlns="http://www.w3.org/2000/svg">
<path d="M108.252 78.8204L98.968 92.215L96.3157 78.8204H108.252Z" fill="#8E67E6" stroke="white"/>
<path d="M10.0247 8.75989L2.99731 15.4142L0.804932 5.92297L6.52075 4.49524L10.0247 8.75989Z" fill="#8E67E6" stroke="white"/>
<path d="M18.6199 1.67688C18.6043 1.75804 18.5901 1.84801 18.5701 1.94348C18.4695 2.42202 18.3127 3.05684 18.0896 3.69348C17.8646 4.33542 17.5811 4.95133 17.2371 5.4093C16.8941 5.86579 16.5393 6.10288 16.1736 6.13879C16.1598 6.13526 16.1205 6.12398 16.0505 6.08997C15.9408 6.03657 15.8006 5.94888 15.6326 5.82629C15.2969 5.58143 14.9014 5.23597 14.4968 4.8595C14.0938 4.48445 13.6965 4.09315 13.3494 3.75696C13.017 3.43514 12.7043 3.13673 12.5027 2.98938C12.2014 2.76933 12.1745 2.60168 12.1804 2.50012C12.1891 2.35277 12.2811 2.15468 12.4802 1.922C12.6713 1.69873 12.9144 1.49758 13.1189 1.34778C13.2004 1.28808 13.2734 1.238 13.3308 1.20032L18.6199 1.67688Z" fill="#7957CB" stroke="white"/>
<path d="M106.555 104.453L102.971 111.241L94.3069 107.96L103.201 102.186L106.555 104.453Z" fill="#8E67E6" stroke="white"/>
<path d="M104.252 119.942L103.377 121.203L101.707 121.926V119.942H104.252Z" fill="#7957CB" stroke="white"/>
<path d="M91.4895 102.708H85.426L81.9124 98.9064L87.9973 93.2618L91.4895 102.708Z" fill="#7957CB" stroke="white"/>
</svg>
