<svg width="36" height="47" viewBox="0 0 36 47" fill="none" xmlns="http://www.w3.org/2000/svg">
<path fill-rule="evenodd" clip-rule="evenodd" d="M18.2105 45.6854C17.9488 45.6854 17.7744 45.5824 17.5999 45.402L1.31595 24.0475C1.17056 23.8414 1.17056 23.5581 1.31595 23.352L17.629 1.97171C17.7744 1.81715 18.007 1.68835 18.2105 1.68835C18.4432 1.68835 18.6467 1.81715 18.763 1.97171L34.9016 23.0944L35.0761 23.352C35.2505 23.5581 35.2505 23.8414 35.0761 24.0475L34.8434 24.3566L18.763 45.402C18.6467 45.5824 18.4432 45.6854 18.2105 45.6854Z" fill="#76E2F8" stroke="white"/>
<path fill-rule="evenodd" clip-rule="evenodd" d="M18.2106 45.685H18.1815H18.1525C18.1525 45.685 18.1234 45.685 18.0943 45.685H18.0652H18.0361C17.8908 45.6335 17.7744 45.5819 17.6872 45.4789C17.629 45.4274 17.5709 45.3501 17.5127 45.2728L9.83602 25.4381C9.80694 25.3351 9.80694 25.2063 9.83602 25.0517L17.5127 2.12584C17.6 1.91977 17.8035 1.76521 18.0652 1.71369C18.0943 1.71369 18.1234 1.68793 18.1525 1.68793C18.5596 1.66217 18.8794 1.91977 18.9376 2.2804L20.8568 22.2697V22.3727L18.8794 45.1183C18.8794 45.4016 18.6759 45.6077 18.3851 45.685C18.3269 45.685 18.2688 45.685 18.2106 45.685Z" fill="#F19FF0" stroke="white"/>
<path fill-rule="evenodd" clip-rule="evenodd" d="M10.0105 24.536L17.5127 2.15112L1.60681 22.9647L10.0105 24.536Z" fill="#9BFCFF" stroke="white"/>
<path fill-rule="evenodd" clip-rule="evenodd" d="M34.9015 23.0942L18.9083 2.17755C18.9083 2.20331 18.9374 2.22907 18.9374 2.28059L20.7984 21.7547L34.9015 23.0942Z" fill="#F7C2FF" stroke="white"/>
<path fill-rule="evenodd" clip-rule="evenodd" d="M20.7986 21.7549L18.9376 2.28082C18.9376 2.2293 18.9085 2.20354 18.9085 2.17778C18.8213 1.84291 18.5305 1.68835 18.2106 1.68835C17.9198 1.71411 17.6291 1.84291 17.5127 2.12626V2.15202L10.0105 24.5369L10.5048 24.64L19.9553 21.7292C20.0135 21.7034 20.1298 21.7034 20.2752 21.7034L20.7986 21.7549Z" fill="#76E2F8" stroke="white"/>
</svg>
