<svg width="66" height="115" viewBox="0 0 66 115" fill="none" xmlns="http://www.w3.org/2000/svg">
<path d="M44.6929 77.2728C44.6929 77.2728 55.6462 93.2979 52.8463 92.7988C46.7646 91.7145 44.6929 87.8048 24.6829 88.3703C24.3148 88.1299 39.5815 86.3219 42.9802 84.5167C39.3307 84.0969 29.3282 82.3743 26.0412 80.0985C25.057 79.4171 23.7324 78.7062 22.4885 77.2728C20.5131 74.9966 11.1683 73.3445 11.1683 73.3445C11.1683 73.3445 15.3142 70.0725 17.5859 69.7092C18.6871 69.5331 21.5684 69.7092 22.9143 70.6786C22.9143 67.6896 19.4412 68.0127 17.1007 65.4277C16.4967 64.7605 16.0428 64.0543 15.3633 62.5194C11.367 53.4921 11.8144 39.4146 14.5324 35.537C14.5324 35.537 12.4076 54.7401 29.3638 62.1155C32.6843 63.5598 31.9386 67.5975 34.8755 70.0323C38.4717 73.0138 40.6135 73.2637 46.2761 75.0409C48.1218 75.6203 52.3555 76.0104 54.279 76.0104C57.8698 76.0104 57.9453 76.0104 58.3231 74.1641C66.4718 83.2448 44.6929 77.2728 44.6929 77.2728Z" fill="#6DE3E6" stroke="white" stroke-width="0.911786"/>
<path d="M51.3834 20.246C51.3654 20.3256 51.32 20.4361 51.284 20.5219C51.2396 20.6277 51.179 20.7665 51.1048 20.9325C50.9563 21.2649 50.7483 21.7186 50.5 22.262C50.0025 23.3505 49.3374 24.8065 48.637 26.3977C47.231 29.5921 45.7019 33.2923 45.0933 35.6648C43.4902 41.914 44.4363 46.0893 44.8994 48.7969C45.9693 55.0524 45.5722 59.9429 44.9018 63.2785C44.2382 66.5802 43.3034 68.3631 43.2916 68.3809L43.207 68.5885L42.9988 68.6418C41.5869 69.003 40.3339 68.1762 39.215 66.9851C38.0896 65.7871 36.969 64.0792 35.8101 62.3971C34.6361 60.6931 33.41 58.9942 32.0423 57.7195C30.6794 56.4491 29.2144 55.6368 27.5583 55.6368L27.3795 55.6369L27.2484 55.506C26.0727 54.3359 24.9292 52.6204 23.8799 50.7347C22.8273 48.843 21.8545 46.7521 21.0264 44.8091C20.1978 42.8653 19.5112 41.0636 19.032 39.7478C18.7923 39.0898 18.6041 38.5526 18.4758 38.1798C18.4118 37.9936 18.3627 37.8482 18.3294 37.7491C18.3128 37.6996 18.3005 37.6612 18.2919 37.6355C18.2877 37.6227 18.2847 37.6128 18.2826 37.6062C18.2815 37.6029 18.2796 37.6006 18.279 37.5989L18.2793 37.5967L18.2785 37.5961L17.7409 35.9552L18.9824 37.1019C18.9829 37.1024 18.9845 37.1032 18.9856 37.1042C18.9878 37.1062 18.9912 37.1096 18.9958 37.1137C19.0049 37.1221 19.0186 37.1347 19.0368 37.1511C19.0737 37.1845 19.1293 37.2337 19.201 37.2971C19.3446 37.424 19.5548 37.6076 19.819 37.8285C20.3478 38.2707 21.0912 38.8649 21.9497 39.4739C23.1426 40.3203 24.5235 41.1696 25.8443 41.6948C24.423 40.3557 22.5871 38.536 20.8344 36.6282C19.6217 35.3082 18.4439 33.9409 17.468 32.6583C16.4976 31.3828 15.7049 30.1637 15.2875 29.1427C14.8376 28.0424 14.0598 26.5831 13.7489 24.5769C13.2754 21.5212 12.9495 20.0003 13.5723 17.085C13.7301 16.3468 13.964 15.477 14.3806 14.764L15.2015 13.3593L15.2018 15.0297C15.2019 15.3938 15.2909 16.1764 15.3527 16.5749C15.5835 18.064 16.1442 19.0939 16.5452 20.0746L16.5447 20.0754C16.8378 20.7921 17.423 21.7065 18.1981 22.7252C18.9679 23.7369 19.9041 24.8251 20.8773 25.8843C22.824 28.0033 24.8982 29.9875 26.0334 30.9923L27.1823 32.009L25.7101 31.8142C24.0622 31.5957 22.1479 30.3908 20.7186 29.3476C20.3684 29.0919 20.0425 28.8408 19.7504 28.6115C22.4971 34.1996 25.9433 38.0286 29.2676 41.3368C30.1249 42.1899 32.4449 44.8035 34.5349 47.1848C35.5834 48.3796 36.5791 49.5225 37.3127 50.366C37.5068 50.5892 37.683 50.7913 37.8366 50.9681C37.8514 50.7918 37.8665 50.5956 37.8858 50.3822C37.978 49.3641 38.1225 47.9457 38.3316 46.3448C38.7485 43.1527 39.4275 39.1979 40.4747 36.2423C43.0259 29.0414 47.3264 23.0357 50.6475 19.7793L51.7265 18.7207L51.3834 20.246Z" fill="#68E8EB" stroke="white" stroke-width="0.911786"/>
<path d="M33.2963 102.047C33.2999 102.05 33.3071 102.057 33.3159 102.069L33.3442 102.128L34.5903 105.877C34.6765 106.136 34.8561 106.37 35.1166 106.496L38.2299 107.996C38.2481 108.005 38.3022 108.053 38.3022 108.173C38.3021 108.293 38.2481 108.34 38.2299 108.349L35.1166 109.85C34.8562 109.975 34.6764 110.209 34.5903 110.468L33.3442 114.217C33.3259 114.272 33.3034 114.292 33.2963 114.298C33.289 114.304 33.287 114.303 33.2895 114.303C33.2916 114.303 33.2889 114.303 33.2817 114.298C33.2744 114.292 33.2528 114.271 33.2348 114.217L31.9887 110.468C31.9025 110.209 31.7218 109.975 31.4614 109.85L28.3491 108.349H28.3481C28.3294 108.339 28.2769 108.292 28.2768 108.173C28.2768 108.053 28.3296 108.005 28.3481 107.996H28.3491L31.4614 106.496C31.7221 106.371 31.9026 106.136 31.9887 105.877L33.2348 102.128C33.253 102.073 33.2746 102.052 33.2817 102.047C33.2854 102.044 33.2883 102.043 33.2895 102.043C33.2907 102.043 33.2931 102.044 33.2963 102.047Z" fill="#98E8F2" stroke="white" stroke-width="0.911786"/>
<path d="M58.6075 53.0661C58.6799 53.2839 58.8335 53.4844 59.0596 53.5934L61.3497 54.6979C61.3503 54.6998 61.352 54.7021 61.3526 54.7047C61.3543 54.7123 61.3555 54.7213 61.3555 54.7311C61.3555 54.7411 61.3544 54.7508 61.3526 54.7585C61.3521 54.7607 61.3502 54.7626 61.3497 54.7643L59.0596 55.8698C58.8335 55.9788 58.6799 56.1793 58.6075 56.3971L57.754 58.9635L56.9014 56.3971C56.829 56.18 56.6766 55.979 56.4503 55.8698L54.1592 54.7653C54.1586 54.7634 54.1579 54.761 54.1573 54.7585C54.1555 54.7508 54.1544 54.7411 54.1544 54.7311C54.1544 54.7213 54.1555 54.7123 54.1573 54.7047C54.158 54.7018 54.1585 54.699 54.1592 54.6969L56.4503 53.5934C56.6762 53.4844 56.829 53.2837 56.9014 53.0661L57.754 50.4987L58.6075 53.0661Z" fill="#98E8F2" stroke="white" stroke-width="0.911786"/>
</svg>
