<svg width="50" height="32" viewBox="0 0 50 32" fill="none" xmlns="http://www.w3.org/2000/svg">
<path d="M11.1992 19.6954C11.1992 19.6954 -0.608838 22.8188 1.73841 23.5587C6.83706 25.1657 7.58649 26.1464 7.58649 26.1464C7.58649 26.1464 14.9432 26.8832 12.9134 24.3349C15.8946 25.4573 21.4153 29.1216 24.7453 28.8336C25.7424 28.7475 27.7238 26.8365 29.1785 26.336C31.4886 25.5412 38.6084 29.956 38.6084 29.956C38.6084 29.956 36.4961 26.1153 34.8528 24.9892C34.0561 24.4433 31.7553 23.4509 30.3791 23.5945C31.395 21.5489 33.9863 23.1115 36.6854 22.2463C37.3819 22.0231 37.9749 21.7151 39.0251 20.927C45.2016 16.2923 49.6385 6.48499 48.8426 2.78129C48.8426 2.78129 43.9681 16.7446 28.2734 15.2428C25.2 14.9486 24.4075 18.0001 21.2958 18.5321C17.4854 19.1835 15.7347 18.5272 10.7265 17.5564C9.09406 17.2399 5.6687 15.8716 4.17267 15.1286C1.37987 13.7416 5.70389 16.9609 6.93916 17.8245C8.42867 18.8659 11.1992 19.6954 11.1992 19.6954Z" fill="#6DE3E6" stroke="white"/>
</svg>
