<svg width="33" height="54" viewBox="0 0 33 54" fill="none" xmlns="http://www.w3.org/2000/svg">
<path d="M22.0644 13.9509L21.6369 14.2115C22.0236 13.9752 22.0602 13.9534 22.0639 13.9517L22.0647 13.9523L22.0666 13.9547C22.0674 13.9561 22.0681 13.9582 22.069 13.9598C22.071 13.9632 22.0737 13.9671 22.0764 13.9717C22.0819 13.9814 22.0885 13.9942 22.0969 14.0098C22.1136 14.0411 22.1365 14.0847 22.1643 14.1434C22.2198 14.2606 22.2967 14.4382 22.3937 14.6942C22.5877 15.206 22.8619 16.0366 23.1958 17.3362C23.7939 19.6645 24.5861 23.5116 25.4579 29.7499C25.7501 28.7901 26.1082 27.6154 26.4692 26.4313C26.911 24.9821 27.3573 23.5184 27.6932 22.4173C27.8611 21.8669 28.0016 21.407 28.0999 21.0848C28.149 20.9237 28.1874 20.797 28.2138 20.7105C28.227 20.6673 28.2375 20.6336 28.2443 20.6113C28.2476 20.6003 28.2509 20.592 28.2526 20.5863C28.2534 20.5838 28.2538 20.5818 28.2542 20.5804L28.2545 20.5782C28.2545 20.5781 28.2548 20.5777 28.7331 20.7237L28.255 20.5774L28.6222 19.3755L29.181 20.5012L29.1816 20.5039C29.1821 20.505 29.1836 20.5063 29.1846 20.5082C29.1865 20.5122 29.1894 20.5181 29.193 20.5255C29.2002 20.5403 29.2099 20.562 29.2231 20.5898C29.2495 20.6456 29.2879 20.7273 29.3353 20.8326C29.4302 21.0433 29.5634 21.3497 29.7173 21.7371C30.0249 22.5117 30.4174 23.613 30.7601 24.9234C31.4433 27.5357 31.9385 31.0233 31.1224 34.4237C29.7375 40.1941 28.9283 44.5826 28.4648 47.5258C28.233 48.9974 28.0878 50.108 28.0006 50.849C27.957 51.2195 27.9275 51.4981 27.9093 51.6831L27.8846 51.9419C27.8841 51.9471 27.8841 51.952 27.8838 51.9554C27.8837 51.9569 27.8833 51.9597 27.883 51.9619C27.883 51.9628 27.8829 51.9663 27.8825 51.9698C27.8823 51.9722 27.8811 51.9778 27.8807 51.9814C27.879 51.9922 27.8619 52.0691 27.8363 52.1335L27.7479 52.3151L27.56 52.3852C26.1772 52.8998 24.8031 52.2479 23.5372 51.2596C22.2567 50.2598 20.9176 48.7813 19.5581 47.33C18.1804 45.8592 16.7682 44.4001 15.295 43.3554C13.8228 42.3115 12.3515 41.7267 10.8495 41.9059L10.6059 41.9345L10.4335 41.7597C9.44003 40.748 8.54591 39.2118 7.76492 37.521C6.9797 35.8211 6.29056 33.9232 5.72168 32.154C5.15233 30.3833 4.70024 28.733 4.39097 27.526C4.23627 26.9223 4.11765 26.4282 4.037 26.0851C3.99668 25.9137 3.96537 25.7795 3.9447 25.6882C3.93441 25.6427 3.92653 25.6074 3.92127 25.5837L3.91437 25.5499L3.91328 25.548L3.91381 25.5472L3.57375 23.9914L4.74185 25.0737L4.74375 25.0761C4.74536 25.0776 4.74816 25.0794 4.75136 25.0823C4.75868 25.089 4.77078 25.0997 4.78588 25.1134C4.81608 25.1406 4.86118 25.182 4.92042 25.2339C5.03923 25.338 5.2136 25.4879 5.43404 25.6682C5.87602 26.0297 6.50053 26.5117 7.22849 26.9949C8.22475 27.656 9.37483 28.2887 10.4984 28.6413C9.32246 27.5197 7.83071 26.0065 6.4231 24.4022C5.43015 23.2705 4.47217 22.0874 3.69322 20.9612C2.91965 19.8427 2.30048 18.7487 2.01263 17.7993C1.71119 16.805 1.13383 15.4775 1.05243 13.5813C0.928926 10.7059 0.78392 9.28826 1.66279 6.43657C1.88584 5.71286 2.19131 4.8634 2.64566 4.14564L3.62898 2.59251L3.56767 4.42967L3.56848 4.43021C3.56846 4.43073 3.56772 4.43212 3.56768 4.43319L3.56651 4.47924C3.5655 4.51123 3.56409 4.55803 3.56243 4.61468C3.55913 4.72807 3.55486 4.88337 3.55114 5.04971C3.54734 5.21979 3.54407 5.39605 3.54282 5.55109L3.54537 5.92621L3.56073 6.18102C3.65563 7.42729 4.03005 8.27688 4.28651 9.1226C4.47881 9.75698 4.91751 10.553 5.52823 11.436C6.13368 12.3113 6.88644 13.2425 7.67805 14.1447C9.26221 15.9502 10.9789 17.6134 11.9235 18.4435L12.947 19.3425L11.5848 19.3189C10.7902 19.305 9.9731 19.0487 9.21759 18.7047C8.45787 18.3587 7.72953 17.9101 7.10502 17.4803C6.84986 17.3047 6.61128 17.1294 6.39256 16.9661C8.3552 21.9608 11.1379 25.2128 13.8664 27.9913C14.5816 28.7195 16.4733 30.9709 18.1658 33.0141C19.0167 34.0413 19.824 35.0241 20.4184 35.7498C20.4612 35.8021 20.5028 35.8531 20.5433 35.9027L21.1374 14.1986L21.1834 12.5105L22.0644 13.9509Z" fill="#68E8EB" stroke="white"/>
</svg>
