<svg width="74" height="99" viewBox="0 0 74 99" fill="none" xmlns="http://www.w3.org/2000/svg">
<path d="M59.5032 51.5433C59.4577 52.2955 59.4186 53.1689 59.3811 54.0374C59.3366 55.0678 59.2924 56.0919 59.2424 56.9154C58.6745 56.6884 58.0308 56.4332 57.386 56.3363C56.5381 56.2088 55.649 56.3392 54.76 57.0345L51.6965 55.806L51.0364 53.2093L51.8225 52.8021L51.8264 52.8001C52.99 52.18 53.6874 52.6339 55.0081 52.8734C55.6484 52.9895 56.373 53.0218 57.2473 52.7533C57.9165 52.5477 58.6553 52.1691 59.5032 51.5433Z" fill="#6DE3E6" stroke="white" stroke-width="0.859649"/>
<path d="M21.829 62.0314C22.7483 63.0658 24.0409 64.2703 25.4071 64.6788C26.3406 64.9579 27.1361 64.7787 27.8114 64.6447C28.4975 64.5085 29.0717 64.4144 29.744 64.6691C30.6457 65.0107 31.5262 65.9624 32.2079 66.9054C32.5408 67.3659 32.8128 67.804 33.0009 68.1271C33.0945 68.288 33.1668 68.4199 33.2157 68.5109C33.2402 68.5563 33.2592 68.5919 33.2714 68.6154C33.2774 68.627 33.2821 68.6361 33.285 68.6417C33.2864 68.6444 33.2874 68.6464 33.288 68.6476V68.6486L33.6493 69.3654L34.0458 68.6681L35.6239 65.8917V71.8087L35.6591 71.8898L36.3827 73.5851L28.537 68.5079L28.2059 68.2931L27.9637 68.6056C26.0521 71.0684 27.1241 73.8787 28.0145 76.0939C28.4794 77.2504 28.8923 78.2333 28.9794 79.0529C29.0215 79.4494 28.9818 79.7717 28.8563 80.0372C28.7331 80.2977 28.5072 80.5453 28.1014 80.7609L27.4803 81.0909L28.0575 81.4933C31.6656 84.0072 33.2527 85.194 34.2596 86.2081C35.2625 87.2181 35.6803 88.041 36.9755 89.9386C38.1445 91.6517 38.0952 93.773 37.6727 95.5333C37.5117 96.2044 37.2971 96.8098 37.0878 97.3019C37.0839 97.2406 37.0837 97.1775 37.079 97.1134C37.0017 96.0535 36.8016 94.6064 36.3094 93.0616C35.3235 89.9674 33.1514 86.452 28.4364 84.921C25.7279 84.0416 24.3699 82.8518 23.5692 81.3917C22.7458 79.89 22.4847 78.0708 22.0682 75.8116C21.6563 73.5771 21.0997 70.9922 19.6532 68.1007C18.833 66.4613 17.7292 64.7301 16.2118 62.9083C17.3001 63.5994 18.4326 64.1948 19.3671 64.3878C19.8674 64.4911 20.3829 64.4946 20.8094 64.2599C21.2598 64.0119 21.5108 63.556 21.5897 62.9669C21.642 62.5764 21.617 62.1389 21.5585 61.7179C21.6455 61.8206 21.7352 61.9259 21.829 62.0314Z" fill="#6DE3E6" stroke="white" stroke-width="0.859649"/>
<path d="M10.5617 25.8997C10.8862 26.2243 11.2838 26.6431 11.7492 27.1409C12.9656 28.4421 14.6235 30.2554 16.5695 32.2034C20.4521 36.0899 25.5371 40.5726 30.6711 42.6682C33.2445 43.7186 35.864 44.1837 38.3654 43.6419C40.585 43.161 42.6661 41.8955 44.5148 39.6302C44.4311 40.0946 44.2831 40.6778 44.0861 41.3577C43.6442 42.883 42.9718 44.8956 42.4357 46.9192C41.8976 48.9506 41.4736 51.0733 41.5256 52.8919C41.5775 54.7061 42.1106 56.3312 43.6105 57.1888C43.8674 57.3356 44.1462 57.3938 44.426 57.3294C44.6967 57.267 44.9138 57.1032 45.0822 56.9114C45.4102 56.5379 45.6403 55.9622 45.8019 55.3567C46.1144 54.186 46.2238 52.678 46.1262 51.5735C46.1449 51.5442 46.1669 51.5106 46.1906 51.472C46.2827 51.3223 46.4112 51.1035 46.5588 50.8216C46.8538 50.258 47.2283 49.4396 47.5519 48.4124C48.0121 46.9517 48.3674 45.0651 48.2463 42.887C48.9824 44.4756 49.8823 46.4605 50.8332 48.4212C51.6125 50.0281 52.4236 51.6066 53.1955 52.8948C53.5815 53.5389 53.9621 54.1167 54.3273 54.5921C54.6749 55.0443 55.0247 55.4232 55.3683 55.6761C57.6971 58.2109 58.7332 59.3118 59.1779 59.9251C59.3944 60.2236 59.4183 60.3396 59.4221 60.4036C59.4244 60.4439 59.4198 60.4936 59.4025 60.5843C59.3891 60.6548 59.3547 60.8119 59.3312 60.9475C59.2202 61.5903 59.1819 62.6275 59.8361 64.9485C60.489 67.2646 61.8399 70.8886 64.5305 76.718C64.7927 77.2861 65.1102 77.9191 65.4435 78.5833C65.7782 79.2501 66.1298 79.9516 66.465 80.6673C67.1381 82.1044 67.7311 83.5691 67.9797 84.8782C68.2296 86.1946 68.1145 87.2583 67.5031 87.9944C66.9078 88.7109 65.7442 89.233 63.6115 89.262C61.927 87.3767 60.6248 86.6072 59.4201 86.3841C58.8073 86.2706 58.2465 86.3037 57.717 86.3743C57.4549 86.4092 57.1929 86.4547 56.9406 86.4964C56.6847 86.5386 56.4335 86.5776 56.1769 86.6048C55.1811 86.7103 54.0595 86.6382 52.4924 85.6848C50.91 84.7222 48.8686 82.8569 46.0754 79.345C46.0562 79.2956 46.0327 79.2534 46.0119 79.22C45.9681 79.1499 45.9147 79.0853 45.8605 79.0286C45.7523 78.9153 45.6087 78.7968 45.4474 78.6761C45.1224 78.4327 44.6725 78.1439 44.1506 77.8304C43.1045 77.202 41.7204 76.4431 40.3537 75.6888C38.981 74.9311 37.6258 74.1781 36.6193 73.554C36.1145 73.2409 35.7104 72.9688 35.4396 72.7503C35.303 72.64 35.2151 72.5547 35.1662 72.4954C35.1621 72.4904 35.1586 72.4858 35.1555 72.4817C35.1555 66.0055 35.1565 62.049 34.8703 59.4221C34.58 56.7577 33.9874 55.3872 32.7658 54.1175C30.3847 51.6426 25.9977 49.7989 16.9269 38.2024C14.288 33.246 12.5067 29.8815 11.4387 27.7405C11.053 26.9674 10.764 26.3606 10.5617 25.8997ZM48.218 61.3138C47.9942 61.4657 47.9178 61.7052 47.8898 61.8753C47.8606 62.0531 47.8695 62.2421 47.8879 62.4046C47.9061 62.565 47.9376 62.731 47.968 62.8704L48.0392 63.177C48.1669 63.7613 48.003 63.9875 47.9035 64.3704C47.8467 64.589 47.8255 64.8541 47.9904 65.1438C48.109 65.352 48.31 65.5411 48.5812 65.7395C48.6467 66.1308 48.8701 66.4533 49.1594 66.6995C49.5 66.9893 49.9502 67.1952 50.423 67.3274C51.3619 67.59 52.5216 67.5981 53.3928 67.263L53.5959 67.1848L53.6525 66.9749C53.7405 66.6523 53.6313 66.3474 53.5002 66.1126C53.3659 65.8723 53.1674 65.6305 52.9601 65.4007C52.5181 64.9104 52.0333 64.4611 51.6301 63.9427L51.591 63.8909L51.5373 63.8538C51.3646 63.733 50.9721 63.3988 50.4562 62.9348C49.9489 62.4786 49.3429 61.9162 48.7551 61.3577L48.5041 61.1194L48.218 61.3138Z" fill="#A8FCFE" stroke="white" stroke-width="0.859649"/>
<path d="M42.6982 10.5159C48.7758 17.4676 50.3211 22.4662 50.3222 25.7493C50.3227 27.569 49.8505 28.8832 49.3876 29.7356C49.1557 30.1627 48.9251 30.4756 48.7558 30.679C48.6714 30.7803 48.6019 30.8544 48.5556 30.9016C48.5325 30.9251 48.5146 30.9423 48.5038 30.9524C48.4985 30.9575 48.495 30.9614 48.4931 30.9631L48.246 31.1799L48.3906 31.4749C48.731 32.1697 48.8431 32.7119 48.8124 33.1428C48.7824 33.5636 48.614 33.9164 48.3193 34.2375C47.6987 34.9135 46.558 35.4135 45.0947 35.9485C43.672 36.4686 41.9871 37.0094 40.4531 37.7874C38.9831 38.5329 37.6044 39.5178 36.6669 40.9651C34.7364 40.9069 32.446 40.1422 30.0556 38.8665C27.5753 37.5427 25.0225 35.6905 22.707 33.5872C20.3913 31.4836 18.3228 29.1377 16.8056 26.8333C15.9158 25.4817 15.2253 24.157 14.7802 22.9133C16.1662 24.8947 18.2468 27.244 20.704 29.3206C24.2128 32.2858 28.5767 34.7716 32.8701 34.7717H32.9345L32.996 34.7532C37.963 33.2326 40.3962 30.2986 41.4335 27.0793C42.4605 23.8921 42.1058 20.4713 41.6093 17.9651C41.4592 17.2072 41.2923 16.5273 41.1474 15.9592C41.2728 16.1453 41.4118 16.3498 41.5624 16.5754C42.4119 17.8474 43.668 19.75 45.4745 22.4143L46.1093 23.3508L46.2558 22.2278C46.5915 19.6531 45.9576 15.0308 42.6982 10.5159ZM34.9902 1.2854C35.1726 1.23427 35.4524 1.31405 35.8964 1.802C36.3178 2.26517 36.7611 2.9599 37.249 3.76392C37.7279 4.55325 38.2443 5.43923 38.791 6.22974C38.8618 6.33211 38.934 6.43329 39.0068 6.53345C38.4301 6.04162 37.8122 5.55929 37.1494 5.09106C36.6962 4.77099 36.2493 4.24753 35.8027 3.60669C35.4024 3.03225 35.0237 2.39498 34.6484 1.77173C34.724 1.62786 34.792 1.51137 34.8574 1.42505C34.9589 1.29099 35.0071 1.2806 34.9902 1.2854Z" fill="#68E8EB" stroke="white" stroke-width="0.859649"/>
<path d="M11.3139 33.8482C11.4155 34.0238 11.5361 34.2639 11.6743 34.581C12.0014 35.3318 12.4149 36.4693 12.9323 38.0944L12.9566 38.1707L13.007 38.2325C15.4345 41.266 15.7573 43.0098 15.6494 44.2814C15.5915 44.9619 15.4192 45.4897 15.2898 46.1423C15.1646 46.773 15.1043 47.4427 15.3522 48.2213C15.6059 49.0182 16.2744 49.7737 17.006 50.4445C17.7472 51.1241 18.6247 51.7795 19.3577 52.3522C19.7288 52.6421 20.063 52.91 20.3364 53.1566C20.6143 53.4074 20.8064 53.6148 20.9123 53.7809C20.9802 53.8874 20.9887 53.9415 20.9898 53.9601C20.9796 53.9727 20.9457 54.0087 20.8508 54.0546C20.0998 53.5142 19.1837 53.1314 18.2229 52.8406C17.1723 52.5226 16.0396 52.3023 14.9714 52.1048C13.8925 51.9055 12.8896 51.7306 12.0561 51.5009C11.54 51.3587 11.1243 51.2032 10.8107 51.0304C11.1402 50.7845 11.3729 50.4615 11.5271 50.1003C11.7629 49.548 11.8158 48.9145 11.794 48.3345C11.772 47.7494 11.673 47.1841 11.5773 46.7494C11.5292 46.5312 11.4811 46.3438 11.4438 46.2015C11.4237 46.1246 11.4113 46.0765 11.398 46.0255C11.3921 46.0028 11.3871 45.9846 11.3837 45.9706C11.3804 45.9574 11.3795 45.9512 11.3793 45.9505C11.2509 45.2678 11.0752 44.7613 10.9185 44.3713C10.8431 44.1837 10.7662 44.0106 10.7129 43.8834C10.6553 43.7457 10.6209 43.6527 10.6031 43.5801C10.5864 43.5122 10.5904 43.4856 10.5921 43.4781C10.5932 43.4729 10.5992 43.4487 10.6438 43.3991C10.7533 43.2773 10.9948 43.109 11.5088 42.8295C11.6023 42.7787 11.652 42.7077 11.6737 42.6714C11.6972 42.6322 11.7101 42.5968 11.7164 42.5769C11.7288 42.5376 11.7333 42.5036 11.7352 42.4879C11.7394 42.4533 11.74 42.4196 11.7401 42.3972C11.7404 42.3484 11.738 42.2871 11.7342 42.2207C11.7263 42.0851 11.7112 41.8942 11.6913 41.6645C11.6521 41.2092 11.5906 40.5585 11.5281 39.8451C11.4017 38.401 11.2647 36.635 11.251 35.2825C11.2449 34.6848 11.2659 34.1916 11.3139 33.8482Z" fill="#6DE3E6" stroke="white" stroke-width="0.859649"/>
<path d="M32.0962 75.1458L32.0903 75.1097C31.8858 73.9077 32.0474 72.7545 32.2925 71.8099C32.5456 74.2994 33.2124 76.0143 34.0552 77.1614C35.1401 78.638 36.4972 79.1496 37.5337 79.1497C37.8126 79.1497 38.0569 79.1257 38.2583 79.0638C38.4637 79.0006 38.6635 78.8844 38.7847 78.6751C38.9031 78.4703 38.9024 78.2513 38.8735 78.0784C38.8448 77.9066 38.7806 77.73 38.7124 77.5667C38.4218 76.8704 37.9644 76.1104 37.9644 75.1819C37.9644 74.78 38.1208 74.0756 38.3569 73.1741C38.5853 72.3024 38.88 71.272 39.1128 70.3001C39.3451 69.3301 39.5297 68.363 39.5278 67.597C39.5275 67.4481 39.5165 67.3012 39.4995 67.1585C39.6183 67.2244 39.7399 67.2959 39.8599 67.3734C40.2136 67.6019 40.5396 67.8663 40.7681 68.1507C40.9964 68.435 41.1031 68.7075 41.0903 68.9661C41.0289 70.2099 41.1885 71.1638 41.4761 71.9407C41.7636 72.7173 42.1706 73.2941 42.5669 73.7864C43.3768 74.7925 44.0318 75.3661 44.0317 76.6087C44.0315 79.2127 41.5324 81.5501 38.8882 81.5501C38.2647 81.55 37.5246 81.3336 36.7485 80.9378C35.9768 80.5442 35.1952 79.9866 34.4966 79.3392C33.7977 78.6915 33.1919 77.9629 32.7632 77.2337C32.3319 76.5 32.0962 75.7935 32.0962 75.1819V75.1458Z" fill="#77D8DA" stroke="white" stroke-width="0.859649"/>
<path d="M62.0457 89.7059C60.2432 91.5508 58.4726 92.3546 56.7212 92.4973C54.8782 92.6475 52.9973 92.0728 51.0522 91.0931C49.1056 90.1127 47.1389 88.7506 45.1198 87.3644C43.1546 86.0151 41.141 84.6453 39.0963 83.639C37.0519 79.631 35.7651 77.2034 34.5277 73.219C36.1157 75.5903 38.2061 76.9347 39.9901 78.2252C41.8948 79.603 43.4517 80.9182 44.0171 83.3514L44.0814 83.6281L44.361 83.6768C46.5742 84.0679 47.6687 84.6491 48.331 85.241C48.665 85.5394 48.9041 85.8545 49.1281 86.1846C49.3433 86.5019 49.5716 86.878 49.8407 87.2143C50.4204 87.9385 51.2288 88.5395 52.8797 88.8796C54.5004 89.2135 56.9543 89.3008 60.8553 89.0173C60.8598 89.0185 60.8658 89.0203 60.8727 89.0225C60.9191 89.0372 60.9878 89.0645 61.0754 89.1058C61.2492 89.1877 61.4634 89.3077 61.6671 89.4374C61.8131 89.5303 61.943 89.625 62.0457 89.7059Z" fill="#A8FCFE" stroke="white" stroke-width="0.859649"/>
<path d="M60.2898 51.0785C60.8821 51.1968 61.4879 51.4887 62.0808 51.9056C62.7808 52.3979 63.4391 53.0455 64.0037 53.724C64.5679 54.4021 65.0297 55.0997 65.3396 55.681C65.4947 55.972 65.6079 56.2269 65.6775 56.43C65.7122 56.5314 65.7342 56.6141 65.7458 56.6781C65.7515 56.7094 65.7546 56.7336 65.7556 56.7513C65.7564 56.7659 65.7558 56.774 65.7556 56.7757C65.1543 61.3571 63.4545 64.7539 61.6628 67.1097C62.7046 65.1223 63.2118 62.2614 62.2537 57.7435L62.239 57.6732L62.2029 57.6126L62.158 57.514C62.1219 57.4076 62.1131 57.2759 62.1345 57.1078C62.1637 56.8785 62.2402 56.6342 62.3269 56.3636C62.4042 56.1224 62.5059 55.8161 62.5154 55.5492C62.5204 55.4062 62.5017 55.2335 62.4099 55.0706C62.3258 54.9216 62.1994 54.8168 62.0515 54.7484L59.6257 52.9984L60.2898 51.0785Z" fill="#6DE3E6" stroke="white" stroke-width="0.859649"/>
<path d="M51.6657 35.028C51.8561 35.4639 52.0371 35.9775 52.197 36.5192C52.417 37.2647 52.5939 38.0453 52.7057 38.7135C52.8203 39.3981 52.8581 39.9173 52.8278 40.1656C52.7432 40.8598 52.7019 41.9932 52.5134 43.0211C52.4205 43.5276 52.3011 43.9449 52.1511 44.2164C52.0001 44.4895 51.8948 44.4959 51.8376 44.4889C51.7103 44.4733 51.5958 44.4065 51.4577 44.1578C51.3092 43.8905 51.1869 43.5074 51.0212 42.9811C50.734 42.0691 50.352 40.8585 49.5046 39.6188C50.7872 38.9565 51.357 37.5368 51.5632 36.2994C51.6365 35.8594 51.6663 35.4252 51.6657 35.028Z" fill="#A8FCFE" stroke="white" stroke-width="0.859649"/>
<path d="M72.0127 64.1765C72.1037 64.0872 72.364 63.9593 73.1328 64.0652C73.2734 64.0846 73.3409 64.1234 73.3721 64.1501C73.3992 64.1734 73.4253 64.2097 73.4404 64.2839C73.4764 64.4612 73.4325 64.7773 73.2422 65.2527C72.8705 66.181 72.0614 67.4309 71.0791 68.7546C69.9886 70.2241 68.7147 71.7413 67.6719 72.9412C67.7025 72.7632 67.7174 72.5869 67.707 72.4158C67.6866 72.0791 67.5729 71.742 67.3037 71.4734C67.0388 71.2092 66.6665 71.0539 66.21 70.991C66.122 70.9789 66.0446 70.9659 65.9766 70.9529C66.0093 70.9332 66.0448 70.9114 66.084 70.8894C66.3172 70.7583 66.6182 70.6131 66.9668 70.4529C67.6518 70.1381 68.5218 69.7674 69.2959 69.3796C70.0598 68.997 70.8122 68.5592 71.248 68.0779C71.7117 67.5657 71.8618 66.9645 71.9004 66.4089C71.9366 65.8872 71.8733 65.2971 71.8652 64.9187C71.8557 64.4706 71.9139 64.2735 72.0127 64.1765Z" fill="#A8FCFE" stroke="white" stroke-width="0.859649"/>
<path d="M6.88098 46.6646C6.92656 46.967 6.97015 47.2869 7.00832 47.6131C7.20121 49.2618 7.28521 50.8855 7.3264 51.2884C7.33369 51.3602 7.30796 51.4445 7.24633 51.6748C7.1985 51.8536 7.11932 52.1592 7.22812 52.471C7.34647 52.8099 7.63727 53.0402 8.04336 53.2007C8.42984 53.3534 8.98097 53.4651 9.75123 53.5429C10.2377 53.8525 10.6338 54.0628 10.9584 54.1967L10.7178 54.4964L11.2334 54.2994C11.5787 54.4088 11.8976 54.4386 12.157 54.3167C12.2205 54.2868 12.2727 54.2483 12.3189 54.2083C12.3828 54.46 12.4708 54.762 12.6138 55.0328C12.7802 55.348 13.0441 55.6584 13.4654 55.8008C14.1418 56.337 14.7864 56.5371 15.3499 56.5499C15.401 56.551 15.451 56.5478 15.5 56.5461C15.4715 56.585 15.4415 56.6246 15.4116 56.6661C15.394 56.6809 15.3105 56.7332 15.0514 56.7212C14.7933 56.7093 14.4655 56.6393 14.1013 56.5347C13.741 56.4312 13.3706 56.3022 13.0296 56.1833C12.7835 56.0974 12.5402 56.0125 12.3359 55.953L12.146 55.9027C12.1281 55.8986 12.0826 55.8885 12.0243 55.892C11.974 55.895 11.8292 55.9135 11.7184 56.0476C11.6002 56.1908 11.6159 56.348 11.63 56.4131C11.6358 56.4391 11.6448 56.462 11.6526 56.4813C11.3115 56.4786 10.9289 56.4742 10.5295 56.4517C9.38168 56.387 8.1995 56.1982 7.48121 55.7108L7.4639 55.6988L7.44521 55.6886L6.63765 55.2591C4.99367 54.3978 3.78814 53.8589 2.93678 53.523C3.41568 53.331 3.9523 53.0314 4.50355 52.5641L4.77917 52.3304L4.59687 52.0184C4.33505 51.572 4.19597 51.2585 4.13522 51.0338C4.07623 50.8155 4.0996 50.715 4.12113 50.665C4.14635 50.6065 4.20337 50.5359 4.35078 50.4309C4.51957 50.3106 4.67309 50.2298 4.93784 50.0569C5.42309 49.74 5.99481 49.2791 6.40828 48.3868C6.62079 47.9281 6.78356 47.365 6.88098 46.6646Z" fill="#2F9496" stroke="white" stroke-width="0.859649"/>
<path d="M64.1078 87.271C64.2267 87.3049 64.3435 87.3261 64.4578 87.3389L64.2296 87.3778C64.1918 87.3485 64.1516 87.3116 64.1078 87.271ZM65.9158 87.1249C65.9735 87.107 66.0279 87.0911 66.0775 87.0763C66.2032 87.0389 66.2954 87.0156 66.365 87.0073C66.3898 87.0043 66.4061 87.0045 66.4153 87.0047L66.6006 87.1076C66.4713 87.2539 66.2421 87.3058 65.9901 87.1661L65.9158 87.1249Z" fill="#2F9496" stroke="white" stroke-width="0.859649"/>
<mask id="path-13-inside-1_6_98" fill="white">
<path d="M63.7738 85.293C63.7738 85.293 63.7072 84.9405 63.649 84.4088L62.9962 83.1632C62.8049 82.7981 62.2681 82.2627 62.2681 82.2627C62.1457 82.3859 62.3615 83.2441 62.5528 83.6093L63.2056 84.8549C63.3969 85.2199 63.6513 85.4161 63.7738 85.293Z"/>
</mask>
<path d="M63.7738 85.293C63.7738 85.293 63.7072 84.9405 63.649 84.4088L62.9962 83.1632C62.8049 82.7981 62.2681 82.2627 62.2681 82.2627C62.1457 82.3859 62.3615 83.2441 62.5528 83.6093L63.2056 84.8549C63.3969 85.2199 63.6513 85.4161 63.7738 85.293Z" fill="#2F9496"/>
<path d="M63.7738 85.293L64.4782 84.9722L64.6012 85.6234L64.1728 86.0544L63.7738 85.293ZM63.649 84.4088L64.255 83.7991L64.344 83.9689L64.3671 84.1803L63.649 84.4088ZM62.2681 82.2627L61.8691 81.5013L62.3203 81.0473L62.7343 81.4603L62.2681 82.2627ZM63.7738 85.293C63.0693 85.6137 63.0693 85.6137 63.0693 85.6136C63.0693 85.6136 63.0693 85.6135 63.0693 85.6135C63.0693 85.6134 63.0693 85.6133 63.0692 85.6132C63.0692 85.6129 63.0692 85.6127 63.0691 85.6124C63.069 85.6119 63.0689 85.6113 63.0688 85.6106C63.0685 85.6092 63.0682 85.6075 63.0678 85.6054C63.067 85.6013 63.066 85.5958 63.0648 85.5889C63.0623 85.5753 63.0589 85.5564 63.0548 85.5325C63.0465 85.4847 63.0353 85.4171 63.0221 85.3324C62.9959 85.1631 62.9622 84.924 62.9308 84.6373L63.649 84.4088L64.3671 84.1803C64.3939 84.4253 64.4226 84.6283 64.4443 84.7682C64.4551 84.838 64.4641 84.8917 64.4701 84.9267C64.4731 84.9442 64.4754 84.9569 64.4768 84.9646C64.4775 84.9685 64.478 84.9711 64.4782 84.9723C64.4784 84.973 64.4784 84.9733 64.4784 84.9733C64.4784 84.9732 64.4784 84.9732 64.4784 84.973C64.4783 84.9729 64.4783 84.9728 64.4783 84.9726C64.4783 84.9726 64.4783 84.9725 64.4783 84.9724C64.4782 84.9724 64.4782 84.9723 64.4782 84.9723C64.4782 84.9723 64.4782 84.9722 63.7738 85.293ZM63.649 84.4088L63.043 85.0185L62.3902 83.7729L62.9962 83.1632L63.6022 82.5535L64.255 83.7991L63.649 84.4088ZM62.9962 83.1632L62.3902 83.7729C62.3467 83.6899 62.2232 83.527 62.0631 83.3452C61.9918 83.2644 61.9254 83.1931 61.8767 83.1421C61.8525 83.1167 61.833 83.0967 61.8199 83.0833C61.8134 83.0767 61.8085 83.0717 61.8054 83.0686C61.8039 83.067 61.8028 83.066 61.8022 83.0654C61.8019 83.0651 61.8018 83.0649 61.8017 83.0649C61.8017 83.0648 61.8017 83.0648 61.8017 83.0649C61.8018 83.0649 61.8018 83.0649 61.8018 83.065C61.8018 83.065 61.8019 83.065 61.8019 83.065C61.8019 83.0651 61.802 83.0651 62.2681 82.2627C62.7343 81.4603 62.7344 81.4603 62.7344 81.4604C62.7344 81.4604 62.7345 81.4604 62.7345 81.4605C62.7346 81.4605 62.7346 81.4606 62.7347 81.4607C62.7349 81.4609 62.7351 81.4611 62.7353 81.4613C62.7358 81.4618 62.7364 81.4624 62.7371 81.4631C62.7386 81.4646 62.7405 81.4665 62.743 81.469C62.7479 81.4739 62.7547 81.4808 62.7632 81.4895C62.7802 81.5069 62.8042 81.5315 62.8333 81.562C62.8912 81.6228 62.9709 81.7082 63.0578 81.8068C63.2139 81.984 63.4544 82.2714 63.6022 82.5535L62.9962 83.1632ZM62.2681 82.2627L62.6672 83.0241C62.8869 82.803 62.9373 82.5192 62.948 82.4487C62.9557 82.3979 62.9573 82.3603 62.9578 82.3416C62.9583 82.3217 62.9576 82.3102 62.9575 82.3089C62.9574 82.3075 62.9585 82.3234 62.9641 82.3586C62.9694 82.3921 62.9775 82.4342 62.9887 82.4833C63.0112 82.5825 63.042 82.6918 63.0759 82.7922C63.1113 82.8968 63.1418 82.9669 63.1589 82.9996L62.5528 83.6093L61.9468 84.219C61.7995 83.9379 61.6722 83.5389 61.5969 83.2072C61.5588 83.0394 61.5221 82.8377 61.5106 82.6385C61.505 82.5426 61.502 82.3968 61.5268 82.2331C61.5483 82.0908 61.6187 81.7531 61.8691 81.5013L62.2681 82.2627ZM62.5528 83.6093L63.1589 82.9996L63.8116 84.2452L63.2056 84.8549L62.5996 85.4646L61.9468 84.219L62.5528 83.6093ZM63.2056 84.8549L63.8116 84.2452C63.8372 84.2939 63.8626 84.3327 63.8845 84.3608C63.9073 84.3902 63.9203 84.4005 63.9191 84.3995C63.918 84.3987 63.9097 84.3923 63.8938 84.3845C63.8784 84.377 63.8494 84.3649 63.8081 84.3585C63.7274 84.3461 63.5529 84.3523 63.3747 84.5315L63.7738 85.293L64.1728 86.0544C63.9335 86.2952 63.6812 86.3231 63.5124 86.2971C63.3475 86.2717 63.2111 86.191 63.1119 86.1145C62.9109 85.9595 62.7352 85.7234 62.5996 85.4646L63.2056 84.8549Z" fill="white" mask="url(#path-13-inside-1_6_98)"/>
<path d="M60.9268 34.4491V34.45C61.0054 34.6703 61.1671 34.8625 61.3916 34.9637L63.9121 36.0985C63.9126 36.099 63.9137 36.1009 63.915 36.1034C63.9197 36.1117 63.9257 36.1281 63.9258 36.1502C63.9258 36.1728 63.9197 36.1898 63.915 36.1981C63.9135 36.2009 63.9125 36.2026 63.9121 36.203L61.3916 37.3377C61.1671 37.439 61.0053 37.6309 60.9268 37.8514L59.9287 40.6581L58.9307 37.8514C58.852 37.6307 58.6901 37.4388 58.4658 37.3377L55.9463 36.203C55.9461 36.2028 55.9452 36.2012 55.9434 36.1981C55.9387 36.1898 55.9326 36.1729 55.9326 36.1502C55.9327 36.128 55.9387 36.1117 55.9434 36.1034C55.9449 36.1007 55.9459 36.0989 55.9463 36.0985L58.4658 34.9637C58.6907 34.8625 58.8521 34.6699 58.9307 34.4491L59.9287 31.6414L60.9268 34.4491Z" fill="#6DE3E6" stroke="white" stroke-width="0.859649"/>
<path d="M24.5345 45.232C24.602 45.4214 24.7414 45.5886 24.9379 45.6773H24.9388L26.6683 46.4566L24.9388 47.2359L24.9379 47.2369C24.7419 47.3255 24.602 47.4919 24.5345 47.6812L23.8988 49.4693L23.2631 47.6812C23.1957 47.4922 23.0559 47.3246 22.8588 47.2359L21.1293 46.4566L22.8588 45.6773H22.8597C23.0074 45.6107 23.1228 45.4997 23.1996 45.3687L23.2631 45.232L23.8988 43.4439L24.5345 45.232Z" fill="#6DE3E6" stroke="white" stroke-width="0.859649"/>
<path d="M22.8524 51.2406C23.2301 51.3615 23.7065 51.5411 24.246 51.7719C25.3247 52.2333 26.6406 52.8922 27.9139 53.6772C29.1902 54.464 30.4069 55.3681 31.2987 56.3148C32.1996 57.2713 32.7136 58.2118 32.7137 59.0785C32.7137 62.1681 32.7612 64.0116 32.7665 65.058C31.9143 63.7886 30.132 61.6188 26.6249 61.9047C26.5314 61.9042 26.3805 61.8748 26.1688 61.7934C25.961 61.7134 25.7195 61.5942 25.4559 61.4408C24.9289 61.1341 24.3386 60.7067 23.785 60.2357C23.2309 59.7643 22.7262 59.2595 22.3641 58.8022C22.2076 58.6044 22.0831 58.4211 21.993 58.2592C22.8772 58.2744 23.5855 58.2079 24.1405 58.0629C24.8192 57.8855 25.3159 57.581 25.5927 57.1273C25.8706 56.6716 25.8741 56.1518 25.7548 55.6615C25.636 55.1738 25.3854 54.6699 25.0887 54.1889C24.4962 53.228 23.6509 52.2539 23.0702 51.5551C22.9709 51.4356 22.8829 51.325 22.8036 51.226C22.8195 51.231 22.836 51.2354 22.8524 51.2406Z" fill="#A8FCFE" stroke="white" stroke-width="0.859649"/>
<path d="M60.0366 43.5851C60.3078 43.5851 60.5278 43.8051 60.5278 44.0763C60.5278 44.3475 60.3078 44.5675 60.0366 44.5675C59.7654 44.5675 59.5454 44.3475 59.5454 44.0763C59.5454 43.8051 59.7654 43.5851 60.0366 43.5851Z" fill="#A8FCFE" stroke="white" stroke-width="0.859649"/>
</svg>
