<svg width="48" height="62" viewBox="0 0 48 62" fill="none" xmlns="http://www.w3.org/2000/svg">
<path d="M21.9739 14.0909C22.4628 17.7961 18.3409 18.9461 15.2582 21.3576C11.7663 24.0893 6.29637 29.0104 5.08589 26.7322C1.04808 19.1326 -0.838343 9.82313 2.81959 4.56085C4.04062 2.80429 9.20914 6.72336 13.0255 8.63676C16.7052 10.4816 21.4677 10.2542 21.9739 14.0909Z" fill="white"/>
<path d="M21.994 14.2428C22.2645 17.967 26.5474 18.3914 30.0649 20.2332C34.0492 22.3194 40.4207 26.2184 41.1483 23.7729C43.5755 15.6152 43.5424 6.14572 38.882 1.60151C37.3264 0.0846349 33.0425 4.81968 29.6806 7.35275C26.4391 9.79506 21.7139 10.3866 21.994 14.2428Z" fill="white"/>
<rect x="16.6808" y="9.25201" width="10.2362" height="8.57132" rx="3.42853" transform="rotate(-5.36636 16.6808 9.25201)" fill="white"/>
<path d="M23.776 17.1924L25.6615 17.0153C25.6615 17.0153 31.5864 21.3859 34.0951 25.7791C36.4062 29.826 40.3691 35.5663 39.2413 40.064C38.2428 44.0459 30.88 62.5495 30.5 58.5C28.9648 42.1384 23.776 17.1924 23.776 17.1924Z" fill="white"/>
<path d="M20.8788 17.4606L18.9933 17.6377C18.9933 17.6377 13.986 23.0354 12.3393 27.8188C10.8223 32.2254 7.99776 38.6032 9.94343 42.8122C11.666 46.5385 22.3808 62.5495 22 58.5C20.4614 42.1387 20.8788 17.4606 20.8788 17.4606Z" fill="white"/>
</svg>
