<svg width="52" height="70" viewBox="0 0 52 70" fill="none" xmlns="http://www.w3.org/2000/svg">
<g filter="url(#filter0_d_6_359)">
<path d="M26 7C26.0053 7.34941 26.0054 7.71167 26 8.08534C26.1387 17.6709 29.9271 34.7626 44.3868 35C44.5891 34.9967 44.7935 34.9967 45 35C44.7935 35.0033 44.5891 35.0033 44.3868 35C29.9271 35.2374 26.1387 52.3291 26 61.9147C26.0054 62.2883 26.0053 62.6506 26 63C25.9947 62.6506 25.9946 62.2883 26 61.9147C25.8613 52.3291 22.0729 35.2374 7.61323 35C7.41091 35.0033 7.20651 35.0033 7 35C7.20651 34.9967 7.41091 34.9967 7.61323 35C22.0729 34.7626 25.8613 17.6709 26 8.08534C25.9946 7.71167 25.9947 7.34941 26 7Z" fill="white"/>
</g>
<defs>
<filter id="filter0_d_6_359" x="0.333333" y="0.333333" width="51.3333" height="69.3333" filterUnits="userSpaceOnUse" color-interpolation-filters="sRGB">
<feFlood flood-opacity="0" result="BackgroundImageFix"/>
<feColorMatrix in="SourceAlpha" type="matrix" values="0 0 0 0 0 0 0 0 0 0 0 0 0 0 0 0 0 0 127 0" result="hardAlpha"/>
<feOffset/>
<feGaussianBlur stdDeviation="3.33333"/>
<feComposite in2="hardAlpha" operator="out"/>
<feColorMatrix type="matrix" values="0 0 0 0 1 0 0 0 0 1 0 0 0 0 1 0 0 0 0.4 0"/>
<feBlend mode="normal" in2="BackgroundImageFix" result="effect1_dropShadow_6_359"/>
<feBlend mode="normal" in="SourceGraphic" in2="effect1_dropShadow_6_359" result="shape"/>
</filter>
</defs>
</svg>
