<svg width="424" height="77" viewBox="0 0 424 77" fill="none" xmlns="http://www.w3.org/2000/svg" xmlns:xlink="http://www.w3.org/1999/xlink">
<path d="M317.645 0.966553C319.009 0.966608 320.363 1.20796 321.642 1.67944L328.106 4.06128C328.768 4.30494 329.207 4.9347 329.207 5.6394V19.9656C329.207 20.5749 330.093 20.6479 330.193 20.0466C330.202 19.9935 330.22 19.9418 330.245 19.8943L333.744 13.3357C334.052 12.759 334.432 12.2239 334.877 11.7449L338.435 7.91284C339.642 6.61319 341.715 6.66365 342.857 8.02026C344.699 10.207 348.264 8.75995 348.06 5.90796L347.966 4.5896C347.826 2.63206 349.376 0.966745 351.339 0.966553H403.207C414.253 0.966553 423.207 9.92087 423.207 20.9666V56.8992L417.283 44.0193L404.515 57.1492L401.922 44.0193L387.557 32.3484L392.346 63.1931L373.793 58.6082L387.557 71.1121L386.484 76.9666H20.2069C9.16127 76.9665 0.206909 68.0122 0.206909 56.9666V20.9666C0.20692 9.92091 9.16128 0.966619 20.2069 0.966553H317.645Z" fill="url(#paint0_linear_6_272)"/>
<path d="M317.645 0.966553C319.009 0.966608 320.363 1.20796 321.642 1.67944L328.106 4.06128C328.768 4.30494 329.207 4.9347 329.207 5.6394V19.9656C329.207 20.5749 330.093 20.6479 330.193 20.0466C330.202 19.9935 330.22 19.9418 330.245 19.8943L333.744 13.3357C334.052 12.759 334.432 12.2239 334.877 11.7449L338.435 7.91284C339.642 6.61319 341.715 6.66365 342.857 8.02026C344.699 10.207 348.264 8.75995 348.06 5.90796L347.966 4.5896C347.826 2.63206 349.376 0.966745 351.339 0.966553H403.207C414.253 0.966553 423.207 9.92087 423.207 20.9666V56.8992L417.283 44.0193L404.515 57.1492L401.922 44.0193L387.557 32.3484L392.346 63.1931L373.793 58.6082L387.557 71.1121L386.484 76.9666H20.2069C9.16127 76.9665 0.206909 68.0122 0.206909 56.9666V20.9666C0.20692 9.92091 9.16128 0.966619 20.2069 0.966553H317.645Z" fill="url(#pattern0_6_272)" fill-opacity="0.05"/>
<defs>
<linearGradient id="paint0_linear_6_272" x1="383.707" y1="-6.53345" x2="382.872" y2="104.46" gradientUnits="userSpaceOnUse">
<stop stop-color="#3E2B9F"/>
<stop offset="0.581731" stop-color="#774CCE"/>
<stop offset="1" stop-color="#7C68C6"/>
</linearGradient>
<pattern id="pattern0_6_272" patternUnits="userSpaceOnUse" viewBox="-771.084 -635 21.756 21.7667" width="2.0573007606106661%" height="11.456132356796227%" patternContentUnits="objectBoundingBox">
<path d="M-767.458 -627.744C-765.456 -627.744 -763.832 -629.369 -763.832 -631.372C-763.832 -633.376 -765.456 -635 -767.458 -635C-769.461 -635 -771.084 -633.376 -771.084 -631.372C-771.084 -629.369 -769.461 -627.744 -767.458 -627.744Z" fill="white"/>
</pattern></defs>
</svg>
