<svg width="28" height="26" viewBox="0 0 28 26" fill="none" xmlns="http://www.w3.org/2000/svg">
<g filter="url(#filter0_d_6_165)">
<path d="M21.8355 8.08265C21.8222 8.04785 21.7992 8.01646 21.7687 7.99128C21.7381 7.96609 21.701 7.94789 21.6605 7.93828C21.6206 7.92972 21.5788 7.93046 21.5393 7.94044C21.4998 7.95042 21.464 7.96929 21.4355 7.99515L19.5005 9.69265L18.4055 9.15015L17.7805 8.18765L19.7205 6.49453C19.7501 6.46863 19.7716 6.43654 19.7829 6.40131C19.7943 6.36608 19.7952 6.32889 19.7855 6.29328C19.7749 6.25768 19.7543 6.22498 19.7254 6.19821C19.6966 6.17145 19.6605 6.15148 19.6205 6.14015C19.0189 5.97199 18.3758 5.95287 17.7626 6.08491C17.1493 6.21696 16.5898 6.49501 16.1461 6.88825C15.7024 7.28149 15.3918 7.77455 15.2487 8.3128C15.1056 8.85104 15.1357 9.41344 15.3355 9.93765L9.4105 15.1133C8.94954 15.0301 8.47221 15.0481 8.02114 15.1656C7.57007 15.2832 7.15929 15.4967 6.8255 15.787C6.29506 16.2512 5.99707 16.8807 5.99707 17.537C5.99707 18.1934 6.29506 18.8229 6.8255 19.287C7.35593 19.7512 8.07535 20.0119 8.8255 20.0119C9.57564 20.0119 10.2951 19.7512 10.8255 19.287C11.1572 18.995 11.4007 18.6354 11.5343 18.2406C11.6678 17.8458 11.6871 17.4281 11.5905 17.0252L17.5005 11.832C18.0989 12.0053 18.7404 12.0304 19.354 11.9044C19.9676 11.7783 20.5294 11.5062 20.9772 11.118C21.425 10.7298 21.7412 10.2408 21.8909 9.70509C22.0406 9.16935 22.018 8.60782 21.8255 8.08265H21.8355ZM10.0655 17.4058L9.7855 18.2502C9.77546 18.2826 9.75587 18.3123 9.72868 18.3361C9.70148 18.3599 9.66763 18.377 9.6305 18.3858L8.6855 18.6308H8.6205C8.59041 18.6309 8.56063 18.6256 8.53307 18.615C8.50551 18.6045 8.48079 18.589 8.4605 18.5695L7.6405 17.852C7.61131 17.8269 7.59071 17.7952 7.58099 17.7604C7.57127 17.7257 7.57283 17.6892 7.5855 17.6552L7.8605 16.8239C7.87248 16.7928 7.8928 16.7646 7.91977 16.7418C7.94674 16.719 7.97956 16.7021 8.0155 16.6927L8.9605 16.4433C9.00078 16.4342 9.04302 16.4343 9.08326 16.4435C9.1235 16.4527 9.1604 16.4707 9.1905 16.4958L10.0005 17.2089C10.0309 17.2333 10.0531 17.2646 10.0646 17.2994C10.076 17.3341 10.0764 17.3709 10.0655 17.4058Z" fill="white"/>
</g>
<defs>
<filter id="filter0_d_6_165" x="0.465098" y="0.466258" width="27.0555" height="25.0776" filterUnits="userSpaceOnUse" color-interpolation-filters="sRGB">
<feFlood flood-opacity="0" result="BackgroundImageFix"/>
<feColorMatrix in="SourceAlpha" type="matrix" values="0 0 0 0 0 0 0 0 0 0 0 0 0 0 0 0 0 0 127 0" result="hardAlpha"/>
<feOffset/>
<feGaussianBlur stdDeviation="2.76599"/>
<feComposite in2="hardAlpha" operator="out"/>
<feColorMatrix type="matrix" values="0 0 0 0 1 0 0 0 0 1 0 0 0 0 1 0 0 0 0.4 0"/>
<feBlend mode="normal" in2="BackgroundImageFix" result="effect1_dropShadow_6_165"/>
<feBlend mode="normal" in="SourceGraphic" in2="effect1_dropShadow_6_165" result="shape"/>
</filter>
</defs>
</svg>
