<svg width="8" height="34" viewBox="0 0 8 34" fill="none" xmlns="http://www.w3.org/2000/svg">
<path d="M3.20994 16.4811C3.20141 16.484 3.19257 16.4856 3.18359 16.4856C3.03658 16.4884 2.91182 16.1164 2.90466 15.6548L2.85744 12.5592L2.77945 7.43741L2.69414 1.83772L2.69231 1.71724L2.68317 1.11646C2.67616 0.654823 2.7895 0.278774 2.9365 0.275529C3.08335 0.272689 3.20826 0.644682 3.21542 1.10673L3.21862 1.31523L3.2762 5.0919L3.31886 7.88728L3.43173 15.2889L3.43707 15.6439C3.44346 16.0783 3.34399 16.4369 3.20994 16.4811Z" fill="#CC483D"/>
<path d="M3.31886 7.88769C3.07406 6.48898 3.18694 1.23937 3.00063 0.843449C2.81083 0.43982 2.7109 1.49494 2.69231 1.71724L2.68317 1.11646C2.67616 0.654822 2.7895 0.278774 2.9365 0.275529C3.08335 0.272689 3.20826 0.644676 3.21542 1.10672L3.21862 1.31523L3.2762 5.0919L3.31886 7.88769Z" fill="#9D4841"/>
<path d="M2.03163 21.3373L1.60017 19.113C1.47149 18.4498 1.94188 17.827 2.5716 17.827H3.90835C4.52725 17.827 4.99512 18.43 4.88482 19.0853L4.50508 21.3373H2.03163Z" fill="#B03B31"/>
<path d="M7.36031 33.9998H0.0106201L0.533822 24.606V24.6058L0.652053 22.4828C0.70558 21.5224 1.44487 20.7733 2.33899 20.7733H4.29266C5.14243 20.7733 5.86028 21.4524 5.9686 22.3595L7.17936 32.4859L7.36031 33.9998Z" fill="#B03B31"/>
<path d="M7.18606 32.4884C6.17823 32.483 5.10227 23.4036 5.04838 22.3979C4.99449 21.3921 2.92151 21.0698 2.92151 21.0698C3.04929 20.9162 3.38776 20.8248 3.81075 20.7733H4.29881C5.14877 20.7733 5.86661 21.4528 5.97511 22.3597L7.18606 32.4884Z" fill="#97322A"/>
<path d="M4.90599 33.999H0.0155029L0.538885 24.6031C0.540147 24.658 0.86371 29.3209 1.70555 29.5137C-0.385548 33.1271 4.90599 33.999 4.90599 33.999Z" fill="#97322A"/>
<path d="M3.53883 16.2944C3.88649 16.2944 4.18531 16.5734 4.22027 16.9456C4.2419 17.1764 4.1635 17.388 4.0258 17.536C3.90343 17.6676 3.73456 17.7491 3.54802 17.7491H2.8664C2.51874 17.7491 2.21992 17.47 2.18496 17.0979C2.16333 16.8671 2.24173 16.6555 2.37942 16.5075C2.5018 16.3758 2.67067 16.2944 2.85721 16.2944H3.53883Z" fill="#D09D4B"/>
<path d="M3.53794 16.2944C3.8856 16.2944 4.18442 16.5734 4.21938 16.9456C4.24101 17.1764 4.16261 17.388 4.02492 17.536C3.90254 17.6676 3.73367 17.7491 3.54713 17.7491H3.42223C3.58913 17.568 3.80287 17.2961 3.88506 17.0218C3.9813 16.7005 3.63706 16.434 3.40259 16.2946H3.53794V16.2944Z" fill="#C37240"/>
</svg>
